<?xml version="1.0" encoding="UTF-8"?>
<!-- Generator: Adobe Illustrator 27.4.1, SVG Export Plug-In . SVG Version: 6.00 Build 0)  -->
<svg xmlns="http://www.w3.org/2000/svg" xmlns:xlink="http://www.w3.org/1999/xlink" version="1.1" id="Calque_1" x="0px" y="0px" viewBox="0 0 421.3 197.3" style="enable-background:new 0 0 421.3 197.3;" xml:space="preserve">
<style type="text/css">
	.st0{fill:#FFFFFF;}
</style>
<g>
	<path class="st0" d="M31.7,183.9c-0.2,2.3-1.1,4-2.4,5.2c-1.4,1.2-3.2,1.8-5.5,1.8c-1.6,0-3-0.4-4.2-1.2c-1.2-0.8-2.2-1.9-2.8-3.4   c-0.7-1.5-1-3.1-1-5v-2.8c0-1.9,0.3-3.6,1-5.1c0.7-1.5,1.6-2.6,2.9-3.4c1.3-0.8,2.7-1.2,4.3-1.2c2.3,0,4.1,0.6,5.5,1.9   c1.3,1.2,2.1,3,2.3,5.2h-1.8c-0.5-3.7-2.4-5.5-6-5.5c-2,0-3.5,0.7-4.7,2.2c-1.2,1.5-1.7,3.5-1.7,6.1v2.6c0,2.5,0.6,4.5,1.7,5.9   c1.1,1.5,2.7,2.2,4.6,2.2c1.9,0,3.3-0.5,4.3-1.4s1.6-2.3,1.8-4.1H31.7z M37.7,190.6H36v-22.7h1.8V190.6z M48.7,190.9   c-1.4,0-2.6-0.3-3.7-1c-1.1-0.7-2-1.6-2.6-2.8c-0.6-1.2-0.9-2.5-0.9-4v-0.6c0-1.5,0.3-2.9,0.9-4.2c0.6-1.2,1.4-2.2,2.5-2.9   c1.1-0.7,2.2-1.1,3.5-1.1c1.9,0,3.5,0.7,4.6,2c1.1,1.3,1.7,3.1,1.7,5.4v1H43.3v0.3c0,1.8,0.5,3.3,1.6,4.5c1,1.2,2.3,1.8,3.9,1.8   c0.9,0,1.8-0.2,2.5-0.5c0.7-0.3,1.4-0.9,2-1.7l1.1,0.8C53.1,190,51.2,190.9,48.7,190.9z M48.4,175.8c-1.3,0-2.5,0.5-3.4,1.5   c-0.9,1-1.5,2.3-1.7,3.9H53V181c0-1.5-0.5-2.8-1.3-3.8C50.8,176.3,49.7,175.8,48.4,175.8z M65.6,176.1c-0.4-0.1-0.8-0.1-1.2-0.1   c-1.1,0-2,0.3-2.8,0.9c-0.8,0.6-1.3,1.5-1.6,2.7v11h-1.8v-16h1.7l0,2.5c0.9-1.9,2.4-2.8,4.5-2.8c0.5,0,0.9,0.1,1.2,0.2L65.6,176.1z    M70,174.6l0.1,2.6c0.6-1,1.3-1.7,2.2-2.2c0.9-0.5,1.9-0.7,3-0.7c2.5,0,4.1,1,4.8,3.1c0.6-1,1.3-1.8,2.3-2.3c1-0.5,2-0.8,3.2-0.8   c3.4,0,5.2,1.9,5.2,5.6v10.7h-1.8v-10.5c0-1.4-0.3-2.5-0.9-3.2c-0.6-0.7-1.6-1-3-1c-1.3,0-2.3,0.4-3.2,1.2   c-0.9,0.8-1.4,1.8-1.5,2.9v10.6h-1.8V180c0-1.4-0.3-2.4-1-3.1c-0.6-0.7-1.6-1-2.9-1c-1.1,0-2.1,0.3-2.9,1c-0.8,0.6-1.4,1.6-1.8,2.8   v11h-1.8v-16H70z M94.2,182.4c0-1.5,0.3-2.9,0.9-4.2c0.6-1.2,1.4-2.2,2.5-2.9c1.1-0.7,2.3-1,3.7-1c2.1,0,3.9,0.7,5.2,2.2   c1.3,1.5,2,3.5,2,5.9v0.4c0,1.5-0.3,2.9-0.9,4.2c-0.6,1.2-1.4,2.2-2.5,2.9c-1.1,0.7-2.3,1-3.7,1c-2.1,0-3.8-0.7-5.2-2.2   c-1.3-1.5-2-3.5-2-5.9V182.4z M96,182.9c0,1.9,0.5,3.5,1.5,4.7c1,1.2,2.3,1.8,3.9,1.8c1.6,0,2.9-0.6,3.9-1.8c1-1.2,1.5-2.8,1.5-4.9   v-0.3c0-1.2-0.2-2.3-0.7-3.4c-0.5-1-1.1-1.8-1.9-2.4c-0.8-0.6-1.8-0.8-2.8-0.8c-1.6,0-2.9,0.6-3.9,1.9c-1,1.2-1.5,2.9-1.5,4.9   V182.9z M113.8,174.6l0.1,2.7c0.6-1,1.4-1.7,2.2-2.3c0.9-0.5,1.9-0.8,3-0.8c1.7,0,3,0.5,3.8,1.4c0.8,1,1.3,2.4,1.3,4.3v10.5h-1.8   v-10.5c0-1.4-0.3-2.5-0.9-3.2s-1.5-1-2.9-1c-1.1,0-2.1,0.3-2.9,1c-0.8,0.7-1.5,1.6-1.9,2.8v11h-1.8v-16H113.8z M131.5,170.5v4.1   h3.3v1.4h-3.3v10.7c0,0.9,0.2,1.5,0.5,2c0.3,0.4,0.9,0.7,1.6,0.7c0.3,0,0.8,0,1.4-0.1l0.1,1.4c-0.5,0.2-1.1,0.2-1.9,0.2   c-1.2,0-2.1-0.4-2.6-1.1c-0.6-0.7-0.8-1.7-0.8-3.1v-10.7h-2.9v-1.4h2.9v-4.1H131.5z M144,181.9h-7.1v-1.5h7.1V181.9z M159.4,180.6   h-10v10.1h-1.8v-21.5h13.3v1.5h-11.5v8.4h10V180.6z M170.1,190.9c-1.4,0-2.6-0.3-3.7-1c-1.1-0.7-2-1.6-2.6-2.8   c-0.6-1.2-0.9-2.5-0.9-4v-0.6c0-1.5,0.3-2.9,0.9-4.2c0.6-1.2,1.4-2.2,2.5-2.9c1.1-0.7,2.2-1.1,3.5-1.1c1.9,0,3.5,0.7,4.6,2   c1.1,1.3,1.7,3.1,1.7,5.4v1h-11.4v0.3c0,1.8,0.5,3.3,1.6,4.5c1,1.2,2.3,1.8,3.9,1.8c0.9,0,1.8-0.2,2.5-0.5c0.7-0.3,1.4-0.9,2-1.7   l1.1,0.8C174.4,190,172.6,190.9,170.1,190.9z M169.8,175.8c-1.3,0-2.5,0.5-3.4,1.5c-0.9,1-1.5,2.3-1.7,3.9h9.6V181   c0-1.5-0.5-2.8-1.3-3.8C172.2,176.3,171.1,175.8,169.8,175.8z M186.9,176.1c-0.4-0.1-0.8-0.1-1.2-0.1c-1.1,0-2,0.3-2.8,0.9   c-0.8,0.6-1.3,1.5-1.6,2.7v11h-1.8v-16h1.7l0,2.5c0.9-1.9,2.4-2.8,4.5-2.8c0.5,0,0.9,0.1,1.2,0.2L186.9,176.1z M197.1,176.1   c-0.4-0.1-0.8-0.1-1.2-0.1c-1.1,0-2,0.3-2.8,0.9c-0.8,0.6-1.3,1.5-1.6,2.7v11h-1.8v-16h1.7l0,2.5c0.9-1.9,2.4-2.8,4.5-2.8   c0.5,0,0.9,0.1,1.2,0.2L197.1,176.1z M209.4,190.6c-0.2-0.5-0.3-1.2-0.3-2.2c-0.6,0.8-1.4,1.4-2.4,1.9c-1,0.4-2,0.7-3.1,0.7   c-1.5,0-2.8-0.4-3.7-1.3c-1-0.9-1.4-1.9-1.4-3.3c0-1.6,0.6-2.8,1.9-3.7c1.3-0.9,3.1-1.4,5.4-1.4h3.2v-1.8c0-1.1-0.4-2-1.1-2.7   c-0.7-0.7-1.7-1-3.1-1c-1.2,0-2.3,0.3-3.1,0.9c-0.8,0.6-1.2,1.4-1.2,2.3l-1.8,0c0-1.3,0.6-2.4,1.8-3.3c1.2-0.9,2.6-1.4,4.4-1.4   c1.8,0,3.2,0.4,4.2,1.3c1,0.9,1.6,2.1,1.6,3.7v7.6c0,1.5,0.2,2.7,0.5,3.5v0.2H209.4z M203.9,189.4c1.2,0,2.2-0.3,3.2-0.9   c0.9-0.6,1.6-1.3,2-2.3v-3.5h-3.2c-1.8,0-3.1,0.3-4.1,1c-1,0.6-1.5,1.5-1.5,2.6c0,0.9,0.3,1.6,1,2.2   C201.9,189.1,202.8,189.4,203.9,189.4z M217.2,174.6l0.1,2.7c0.6-1,1.4-1.7,2.2-2.3c0.9-0.5,1.9-0.8,3-0.8c1.7,0,3,0.5,3.8,1.4   c0.8,1,1.3,2.4,1.3,4.3v10.5h-1.8v-10.5c0-1.4-0.3-2.5-0.9-3.2s-1.5-1-2.9-1c-1.1,0-2.1,0.3-2.9,1c-0.8,0.7-1.5,1.6-1.9,2.8v11   h-1.8v-16H217.2z M231.5,182.5c0-2.5,0.6-4.5,1.7-5.9c1.1-1.5,2.6-2.2,4.5-2.2c2.2,0,3.8,0.9,4.9,2.6v-9h1.8v22.7h-1.7l-0.1-2.1   c-1.1,1.6-2.8,2.4-5,2.4c-1.8,0-3.3-0.7-4.5-2.2c-1.1-1.5-1.7-3.5-1.7-6V182.5z M233.2,182.8c0,2,0.4,3.6,1.2,4.8   c0.8,1.2,2,1.8,3.5,1.8c2.2,0,3.7-1,4.6-2.9V179c-0.9-2.1-2.5-3.1-4.6-3.1c-1.5,0-2.6,0.6-3.5,1.8   C233.7,178.8,233.2,180.5,233.2,182.8z"></path>
	<path class="st0" d="M174.1,96.2V67.6c0-5.3-0.9-6.8-3.2-7.4c0,0,0.1-0.4,0.1-0.4c5.8-0.7,12.3,1.4,12.3,11.9v24.4H174.1z    M176.7,50.7c3.4,0,6.1-2.7,6.1-6.1s-2.7-6.1-6.1-6.1s-6.1,2.7-6.1,6.1S173.3,50.7,176.7,50.7z M265.7,112.7   c-0.1,0-0.1,0.4-0.1,0.4c2.4,0.5,3.2,2,3.2,7.4v28.5h9.2v-24.4C278,114.1,271.5,112,265.7,112.7z M271.4,103.6   c3.4,0,6.1-2.7,6.1-6.1s-2.7-6.1-6.1-6.1s-6.1,2.7-6.1,6.1S268,103.6,271.4,103.6z M142.2,39.2c0-1-0.8-1.7-1.7-1.7   c-1,0-1.7,0.8-1.7,1.7c0,1,0.8,1.7,1.7,1.7C141.4,40.9,142.2,40.2,142.2,39.2z M250.8,63.8c4.2-4.7,3.8-11.8-0.8-15.4   c-2.9-2.3-6.9-3.5-9.2-3.8c-0.3,0-0.4,0.9-0.4,0.9s6.2,1.8,3.2,6c-2.7,3.7-8.8,5.5-6.9,11.4C238.5,68.5,246.6,68.5,250.8,63.8z    M313.9,171.5h8.5v-59.3h-8.3L313.9,171.5z M67.2,113.7c-0.2,0,0.3,0.4,0.3,0.4c1.5,0.3,2.4,2.1,2.4,5.1v29.9h5.3v-26.8   C75.2,114.6,70.7,112.9,67.2,113.7z M109.7,41.9V15.2c0-7.8-4.5-9.4-8-8.6c-0.2,0,0.3,0.4,0.3,0.4c1.5,0.3,2.4,2.1,2.4,5.1v29.9   H109.7z M29,149.1h5v-35.4h-5.1L29,149.1z M147.2,26.1c0.6,1.2,2.4,0.9,3.2-0.2s0.4-2.6-0.7-3.4c-0.6-0.4-1.6-0.5-2.1-0.6   c-0.1,0-0.1,0.1,0,0.1c0.5,0.1,1.2,0.5,0.8,1.4C148,24.3,146.6,24.9,147.2,26.1z M358.5,148.7h8.8v-35.9h-9L358.5,148.7z    M350.4,147.9c-2.3,0-6.6-1.1-6.6-7.8v-27.4h-9.2c0,0-0.1,26.5,0,27.7c0.1,1,0.3,1.8,0.3,1.8c2,5.8,9,6.9,13.7,6.9   c1.5,0,2.8-0.2,3.9-0.5c1.4-0.4,3.3-1.1,4.7-1.8l-0.1-0.8C356.1,146.6,353.3,147.9,350.4,147.9z M204.1,148.7h8.8v-35.9h-9   L204.1,148.7z M196,147.9c-2.3,0-6.6-1.1-6.6-7.8v-27.4h-9.2c0,0-0.1,26.5,0,27.7c0.1,1,0.3,1.8,0.3,1.8c2,5.8,9,6.9,13.7,6.9   c1.5,0,2.8-0.2,3.9-0.5c1.4-0.4,3.3-1.1,4.7-1.8l-0.1-0.8C201.7,146.6,198.9,147.9,196,147.9z M300.3,145.2c-1.1-2-1.5-4.8-1.8-8.2   c-0.3-4.1-0.3-10.1,0-13.6c0.2-2.3,0.5-4.3,0.9-6c1.5-5.2,8-5.5,11.6-4.5v-0.6c-3-0.9-5.7-0.8-7.5-0.6c-8.1,0.5-15.2,6.8-15.2,18.4   c0,12.1,7.6,18.6,16.1,18.6c0,0,0,0,0,0c2.1,0.1,5-0.1,8-1.4v-0.5C309.7,147.9,302.3,149.1,300.3,145.2z M20.7,147   c-0.6-1.2-0.9-2.8-1.1-4.9c-0.2-2.4-0.2-6,0-8c0.1-1.4,0.3-2.5,0.5-3.5c0.9-3.1,4.8-3.2,6.9-2.7v-0.4c-1.8-0.5-3.4-0.5-4.4-0.4   c-4.8,0.3-9,4-9,10.9c0,7.2,4.5,11,9.6,11c0,0,0,0,0,0c1.3,0.1,2.9-0.1,4.8-0.8v-0.3C26.2,148.5,21.9,149.2,20.7,147z M47.8,136.5   H58c0-8.8-4.9-10.5-9.6-10.5c-7.3,0-10.5,5.7-10.5,11.7c0,5.9,2.5,9.9,8.7,11.1c0.4,0.1,1.7,0.4,3.5,0.3c0.1,0,0.3,0,0.4,0   c0.1,0,0.2,0,0.2-0.1c1.1-0.1,2.3-0.3,3.6-0.8v-0.3c-1.7,0.4-4.7,1.1-7.1-0.3c-1.7-1.2-2.6-3.3-2.8-5.3c-0.2-1.9-0.1-9.1,0.1-9.9   c0.3-3,0.8-5.9,4-5.9c2.1,0,3.2,1.6,3.6,3.9c0.3,1.5,0.4,3.8,0.4,5.5h-4.5V136.5z M390.6,146.8c-2.7-1.9-4.1-5.3-4.4-8.3   c-0.2-3-0.1-14.4,0.1-15.7c0.5-4.7,1.3-9.3,6.3-9.3c3.4,0,5,2.5,5.7,6.1c0.4,2.4,0.6,6,0.6,8.7h-7.1v1h16.1   c0-13.8-7.8-16.6-15.1-16.6c-11.5,0-16.6,9-16.6,18.4c0,9.4,4,15.7,13.7,17.5c0.6,0.2,2.7,0.6,5.5,0.5c0.2,0,0.5,0,0.7,0   c0.2,0,0.2,0,0.3-0.1c1.7-0.1,3.7-0.5,5.7-1.2v-0.5C399.2,147.9,394.4,148.9,390.6,146.8z M123.2,41.8c0.4,0.1,1.5,0.3,3.1,0.3   c0,0,2,0,3.8-0.7v-0.3c-1.5,0.4-4.2,1-6.3-0.2c-1.9-1-2.3-2.9-2.5-4.7c-0.1-1.7,0-8.1,0-8.8c0.3-2.6,0.7-5.2,3.5-5.2   c1.9,0,2.8,1.4,3.2,3.4c0.2,1.3,0.3,3.4,0.3,4.9h-4V31h9c0-7.7-4.4-9.3-8.5-9.3c-6.5,0-9.3,5-9.3,10.3   C115.5,37.3,117.7,40.8,123.2,41.8z M116.5,59.6h-9v36.5h9.2L116.5,59.6z M124.1,60.4c-3,0.2-5.8,1.5-7.3,2.5v0.7   c1.7-0.9,4.2-1.7,6.2-1.5c3.3,0.3,5.4,2.1,5.4,7.7v26.4h9.2c0,0,0-24.5,0-25.7c0-0.3,0-1.5-0.3-2.7C135.2,60.9,128.9,60,124.1,60.4   z M144.9,60.4c-3,0.2-5.8,1.5-7.3,2.5v0.7c1.7-0.9,4.2-1.7,6.2-1.5c3.3,0.3,5.4,2.1,5.4,7.7v26.4h9.2c0,0,0-21.5,0-22.7   c0-0.3,0.1-4.1-0.3-5.7C156.3,61.1,149.7,60,144.9,60.4z M116.4,112.5v36.5h9.2l-0.2-36.5H116.4z M133,113.3   c-3,0.2-5.8,1.5-7.3,2.5v0.7c1.7-0.9,4.2-1.7,6.2-1.5c3.3,0.3,5.4,2.1,5.4,7.7v26.4h9.2c0,0,0-24.5,0-25.7c0-0.3,0-1.5-0.3-2.7   C144.1,113.8,137.8,112.9,133,113.3z M153.8,113.3c-3,0.2-5.8,1.5-7.3,2.5v0.7c1.7-0.9,4.2-1.7,6.2-1.5c3.3,0.3,5.4,2.1,5.4,7.7   v26.4h9.2c0,0,0-21.5,0-22.7c0-0.3,0.1-4.1-0.3-5.7C165.2,114,158.6,112.9,153.8,113.3z M86.1,94.9c5,0.9,10.5,0.2,10.5,0.2   c-8.1-1.5-5.4-12.9-5.4-35c0-16.9-13.2-18.8-19.4-18.7l0,0c0,0-3.5,0.1-5.3,0.7c0.1,0.2,0.2,0.5,0.2,0.5s4.8-1.4,7.7,2.9l-0.5-0.8   c1.9,2.5,3.7,7.1,4,15.4C78.5,76.1,72.3,91.9,86.1,94.9z M58.3,61.9c6.1-1,5.9-7.4,3.4-11.7c-2.3-4,2.4-7.6,2.4-7.6   s-7.1,0.8-10.6,6.4C50.1,54.3,52.5,62.9,58.3,61.9z M76.3,91.9c-0.9,0.5-2.5,0.9-3.5,1.2c-4.2,0.7-12.6,0.3-13.9-9.1   c-0.7-4.9,0.7-8.4,2.5-10.8c3.8-4.7,12.8-5.4,12.8-5.4l-0.1-0.6c-4.5,0.4-8.6,1.5-10.5,2.1c-6.2,1.6-16.2,5.5-15,16.5   c1.2,11.4,14,11.8,22.1,8.8c0,0,5-1.7,5.9-2.1C76.6,92.5,76.4,91.9,76.3,91.9z M98.2,133.9c0-9.3-9.5-7.8-9.5-7.8s3.6-0.3,3.9,7.8   s-3.1,16,7.9,14.7C97.1,148,98.2,143.2,98.2,133.9z M86.8,126.5c0,0-3,0.3-4.5,2.7c-1.4,2.2-0.4,5.9,2,5.5c2.6-0.4,2.5-3.1,1.4-4.9   C84.8,128.1,86.8,126.5,86.8,126.5z M91.9,147.3c-0.4,0.2-1.1,0.4-1.5,0.5c-1.8,0.3-5.3,0.1-5.8-3.8c-0.3-2.1,0.3-3.5,1.1-4.5   c1.6-2,5.4-2.3,5.4-2.3l0-0.3c-1.9,0.2-3.6,0.6-4.4,0.9c-2.6,0.7-6.8,2.3-6.3,7c0.5,4.8,5.9,4.9,9.3,3.7l0.3-0.1   c1.9-0.6,2.2-0.8,2.2-0.8S92,147.3,91.9,147.3z M146.7,36.5c1.7,1.2,3,2.3,2.9,3.5c-0.5,2.2-4.2,1.7-4.2,1.7s0,0.2,0,0.4   c3.6,0.3,5.2-1.3,5.5-2c0.8-1.2,1.3-2.7,1-4.2c-0.8-3.2-4.8-5.4-9.7-8.6c-1.8-1.2-2.5-2.2-2.5-3.3c0-2,3.5-2.2,3.5-2.2s0-0.2,0-0.4   c-2.4,0.1-4,1.4-4.5,2.1c-1,1.2-2.4,4.7,0.2,7.2C140.4,32.3,142.9,33.8,146.7,36.5z M216.7,81c-7-8.1-11.1-15.3-9.9-21.8   C208.1,45,225.7,44,225.7,44l0-1.3c-11.5,0.8-17,4.3-22.6,10.4c-7.8,8.4-14.2,28.7,11.4,51.7c25.3,22.8,32.1,32.8,29.2,41.5   c-3.3,9.5-16.2,10.4-22.4,10.3v1.9c0,0,20.9,0.3,29.3-9.4C271.3,125.1,231,97.7,216.7,81z"></path>
</g>
</svg>
